# xmcd
#
# Track frame offsets:
# 150
# 25353
# 36156
# 52475
# 64775
#
# Disc length: 1291 seconds
#
# Revision: 0
# Processed by: cddbd v1.5.2PL0 Copyright (c) Steve Scherf et al.
# Submitted via: Audion 3.0.2 (http://www.panic.com/audion/)
#
DISCID=47050905
DTITLE=Lou Reed - Grandes mitos ll
DYEAR=1900
DGENRE=
TTITLE0=I^M WAITINF FOR THE MAN
TTITLE1=I¬LL BE YOUR MIRROR
TTITLE2=SOME KINDA LOVE
TTITLE3=FEMME FATALE
TTITLE4=HEROIN
EXTD=
EXTT0=
EXTT1=
EXTT2=
EXTT3=
EXTT4=
PLAYORDER=
